# xmcd
#
# Track frame offsets: 
#        150
#        14458
#        28055
#        42880
#        58652
#        82047
#        95233
#        111735
#        129155
#        142975
#
# Disc length: 2098 seconds
#
# Revision: 4
# Processed by: cddbd v1.5.2PL0 Copyright (c) Steve Scherf et al.
# Submitted via: ExactAudioCopyFreeDBPlugin 1.0
#
DISCID=8b08300a
DTITLE=Emmylou Harris - 1983 - White Shoes
DYEAR=1983
DGENRE=Country
TTITLE0=Drivin' Wheel
TTITLE1=Pledging My Love
TTITLE2=In My Dreams
TTITLE3=White Shoes
TTITLE4=On The Radio
TTITLE5=It's Only Rock 'N Roll
TTITLE6=Diamonds Are A Girl's Best Friend
TTITLE7=Good News
TTITLE8=Baby, Better Start Turnin' 'Em Down
TTITLE9=Like An Old Fashioned Waltz
EXTD=YEAR: 1983 ID3G: 2
EXTT0=
EXTT1=
EXTT2=
EXTT3=
EXTT4=
EXTT5=
EXTT6=
EXTT7=
EXTT8=
EXTT9=
PLAYORDER=
